<svg width="216" height="191" viewBox="0 0 216 191" fill="none" xmlns="http://www.w3.org/2000/svg">
<mask id="path-1-inside-1_459_1504" fill="white">
<path d="M28.1154 117.727C28.2544 118.903 28.3983 120.077 28.5373 121.252C28.6435 122.132 28.7928 123.005 28.9206 123.881C29.0324 124.638 29.1373 125.391 29.2972 126.139C29.5093 127.284 29.7264 128.427 29.9386 129.572C30.112 130.475 30.3265 131.366 30.502 132.274C30.8945 134.107 31.3538 135.934 31.7951 137.746C32.2588 139.652 32.8163 141.536 33.3072 143.424C33.865 145.486 34.4618 147.531 35.0392 149.584C36.085 153.214 37.3265 156.79 38.554 160.361C39.1111 161.998 39.7385 163.611 40.3903 165.214C41.1006 166.901 41.7906 168.609 42.5789 170.263C43.4879 172.177 44.3919 174.092 45.4667 175.936C45.9442 176.757 46.3995 177.593 46.914 178.393C47.4286 179.192 48.0147 180.094 48.5839 180.927C49.2901 181.951 49.9846 182.973 50.6246 184.03C51.2459 185.144 51.809 186.291 52.3116 187.464C52.5878 188.146 53.1235 188.69 53.8007 188.976C54.478 189.263 55.2413 189.269 55.9228 188.992C56.6044 188.716 57.1482 188.18 57.4348 187.503C57.7214 186.826 57.7272 186.063 57.4509 185.381C56.9943 184.296 56.4793 183.236 55.9082 182.207C55.4899 181.459 55.0688 180.718 54.6281 179.985C54.3243 179.481 53.9737 179.003 53.6476 178.514C52.9744 177.529 52.3054 176.554 51.6615 175.556C51.1126 174.702 50.6055 173.825 50.0936 172.949L48.8808 170.641C48.4189 169.762 48.026 168.843 47.601 167.942C46.7627 166.183 46.0344 164.371 45.2964 162.563C43.8676 159.06 42.714 155.447 41.5185 151.857C40.6822 149.339 39.9532 146.775 39.2189 144.185C38.5025 141.72 37.8759 139.222 37.2298 136.733C36.8221 135.096 36.4242 133.455 36.0624 131.805C35.8579 130.869 35.6298 129.932 35.4518 128.991L34.8258 125.649C34.6847 124.905 34.579 124.163 34.4615 123.42C34.3291 122.505 34.1724 121.601 34.0615 120.683C33.8286 118.767 33.5998 116.859 33.4365 114.93C33.3424 113.793 33.2385 112.66 33.1993 111.517C33.1601 110.374 33.0932 109.11 33.0795 107.905C33.0657 106.699 33.0222 105.368 33.0407 104.103C33.0524 103.004 33.0681 101.905 33.0877 100.806C33.1766 99.0804 33.2565 97.3475 33.4094 95.6241C33.4851 94.754 33.5352 93.8775 33.6464 93.0098L34.0804 89.7041C34.1872 88.8669 34.3621 88.0413 34.5174 87.2239C34.6727 86.4064 34.7939 85.7125 34.9662 84.9625C35.1747 84.094 35.3359 83.2224 35.5623 82.3693L36.3266 79.4528C37.3142 76.1667 38.2787 72.7984 39.9905 69.7872C40.6507 68.7323 41.4142 67.7455 42.2695 66.8415C43.0192 66.1396 43.8361 65.513 44.7084 64.9709C45.396 64.604 46.1159 64.3009 46.8589 64.0656C47.3993 63.9567 47.9476 63.891 48.4984 63.8691C49.0972 63.9063 49.6919 63.9919 50.2768 64.1251C50.0665 65.6029 49.8798 67.0823 49.7542 68.5703L49.4593 71.8519C49.4359 72.1373 49.4452 72.4319 49.4315 72.7132L49.3639 74.8026C49.2973 76.949 49.3063 79.098 49.3036 81.2462C49.2984 82.0521 49.3572 82.8598 49.3894 83.6728C49.4217 84.4859 49.4391 85.3454 49.4983 86.1816C49.6322 88.0542 49.7465 89.9349 49.9422 91.8044C50.1587 93.7914 50.378 95.7715 50.6396 97.7568C50.9013 99.742 51.1752 101.756 51.5126 103.744C51.85 105.732 52.1902 107.604 52.5599 109.532C52.9072 111.366 53.3485 113.178 53.7557 115.005C53.9279 115.782 54.1473 116.562 54.3369 117.326C54.6214 118.452 54.8816 119.589 55.1857 120.706C55.6624 122.412 56.0952 124.135 56.6338 125.837C57.2297 127.716 57.8178 129.604 58.4352 131.48C59.102 133.446 59.7834 135.406 60.4795 137.359C61.1292 139.175 61.8208 140.968 62.5095 142.768C62.8272 143.604 63.2054 144.421 63.5524 145.245C63.8582 145.972 64.1682 146.708 64.5049 147.399C64.9938 148.41 65.4854 149.414 65.9722 150.421C66.2068 150.896 66.495 151.349 66.7444 151.778L67.7996 153.63C68.2084 154.342 68.6447 154.996 69.1036 155.704C69.9237 156.943 70.7182 158.176 71.6598 159.336C72.5393 160.441 73.4842 161.492 74.4895 162.484C75.4426 163.439 76.5034 164.279 77.6505 164.989C78.2657 165.356 78.9063 165.679 79.5674 165.955C80.2313 166.226 80.917 166.441 81.6169 166.597C82.3345 166.749 83.069 166.807 83.8016 166.768C84.6754 166.74 85.5419 166.597 86.3784 166.343C89.1049 165.551 91.3079 163.625 92.9316 161.346C93.6931 160.251 94.3575 159.091 94.9173 157.88C95.5215 156.547 96.0153 155.166 96.3939 153.751C97.1383 151.139 97.5463 148.441 97.6079 145.726C97.6572 143.602 97.5406 141.479 97.2591 139.374C97.1244 138.386 96.9974 137.389 96.8489 136.395L96.2493 133.048C96.0931 132.172 95.8742 131.311 95.6887 130.448C95.4788 129.486 95.2515 128.536 95.0026 127.591C94.7178 126.505 94.4399 125.422 94.1551 124.337C93.9029 123.369 93.5596 122.417 93.2614 121.463C92.6951 119.641 92.0556 117.849 91.4288 116.046C88.9195 108.79 85.6656 101.824 82.3894 94.8737C81.6039 93.2123 80.7327 91.5928 79.8956 89.9589C79.4963 89.174 79.0364 88.4089 78.6058 87.6315C78.1195 86.7627 77.6507 85.8808 77.142 85.0271C76.1379 83.3372 75.1455 81.6481 74.0744 80.0037L72.9901 78.3417C72.8071 78.0571 72.6319 77.7635 72.4314 77.4919C71.79 76.6138 71.147 75.7363 70.5024 74.8596C70.0581 74.2543 69.6047 73.6817 69.1255 73.1027C68.5009 72.3553 67.9091 71.5768 67.2565 70.8584L64.9655 68.3209C64.2908 67.5774 63.5707 66.8759 62.8583 66.1654L61.6524 64.9508C60.9779 64.276 60.2427 63.6613 59.5115 63.0563C58.5479 62.2597 57.5336 61.5265 56.4749 60.8615L56.6038 60.2676C56.7263 59.6994 56.898 59.1391 57.0454 58.5891L57.0148 58.6938C57.6312 56.6591 58.4363 54.6865 59.4198 52.8017C60.0398 51.8103 60.7541 50.881 61.5526 50.0267C62.7196 48.9209 64.1442 48.1239 65.6971 47.7079C66.5005 47.5413 67.3178 47.4509 68.1382 47.438C69.4959 47.514 70.8416 47.7346 72.1525 48.0961C74.2323 48.7832 76.2278 49.7034 78.1007 50.8391C79.0169 51.4064 79.9124 52.0016 80.787 52.6246C81.5533 53.1631 82.3148 53.7037 83.0354 54.3246L85.6829 56.5225C86.1887 56.9468 86.6568 57.4042 87.1298 57.8595L89.1144 59.7509C90.193 60.8813 91.3009 61.9994 92.3264 63.1808C93.6057 64.6515 94.9045 66.114 96.1112 67.644L98.0793 70.1509C97.3454 71.7383 96.7438 73.3836 96.2809 75.07L95.8332 76.7339C95.7264 77.1348 95.5939 77.5292 95.503 77.9406L94.8912 81.0284C94.8401 81.3025 94.8098 81.5851 94.7705 81.8599C94.6814 82.5347 94.5902 83.2045 94.4747 83.8847C94.3558 84.7614 94.3029 85.6448 94.2284 86.5315C94.1539 87.4182 94.1038 88.1856 94.0775 89.0234C94.0418 90.1521 93.958 91.2896 93.9911 92.4181L94.0848 95.8863C94.1063 96.7555 94.2132 97.6233 94.2876 98.4818C94.594 102.142 95.1458 105.784 95.7749 109.406C95.9453 110.356 96.0863 111.319 96.2782 112.266L96.961 115.646C97.1213 116.423 97.3081 117.194 97.49 117.967C97.7348 119.012 97.9601 120.065 98.2341 121.098L99.204 124.548C99.4337 125.352 99.719 126.139 99.9848 126.934C100.251 127.729 100.469 128.453 100.777 129.213C101.213 130.246 101.617 131.288 102.032 132.33C102.155 132.622 102.31 132.908 102.45 133.199L103.373 135.106C104.263 136.906 105.271 138.645 106.391 140.312C107.898 142.593 109.655 144.7 111.63 146.591C112.503 147.421 113.443 148.177 114.441 148.852C115.66 149.701 116.968 150.413 118.343 150.975C119.727 151.545 121.212 151.824 122.707 151.796C123.497 151.775 124.279 151.639 125.029 151.393C125.801 151.126 126.534 150.758 127.209 150.297C128.391 149.434 129.365 148.316 130.057 147.026C130.716 145.804 131.211 144.501 131.531 143.15C132.236 140.557 132.307 137.835 132.267 135.176C132.249 133.001 132.033 130.832 131.623 128.696C131.376 127.44 131.14 126.184 130.84 124.939C130.572 123.903 130.309 122.878 130.049 121.862C129.862 121.131 129.641 120.415 129.418 119.693C129.142 118.793 128.882 117.875 128.58 116.98C127.988 115.232 127.417 113.48 126.775 111.753L125.608 108.61C125.293 107.755 124.897 106.923 124.578 106.07C123.821 104.202 123.016 102.359 122.236 100.506C121.456 98.6526 120.624 96.9763 119.797 95.2174C118.971 93.4585 118.124 91.8572 117.286 90.1781C116.941 89.4964 116.558 88.8312 116.189 88.1597C115.687 87.2227 115.187 86.3024 114.688 85.3988C114.157 84.4109 113.568 83.4476 112.998 82.4762C112.555 81.7098 112.13 80.9185 111.66 80.1693C111.084 79.2638 110.507 78.3488 109.93 77.4242C109.526 76.7908 109.142 76.1373 108.72 75.517C107.369 73.5483 106.025 71.5707 104.627 69.6275C105.265 68.594 106 67.6248 106.825 66.7334C107.418 66.1913 108.057 65.703 108.736 65.2742C109.28 64.9908 109.846 64.7526 110.429 64.5618C110.969 64.4546 111.517 64.389 112.068 64.3654C112.815 64.4185 113.556 64.5391 114.281 64.7256C115.384 65.0909 116.448 65.5638 117.458 66.1377C119.047 67.1812 120.519 68.3918 121.849 69.7488C122.81 70.7624 123.7 71.8402 124.572 72.9025C125.099 73.5416 125.612 74.1869 126.095 74.8445C126.533 75.4351 126.986 76.0195 127.416 76.6191C127.288 77.0233 127.183 77.4291 127.054 77.8451C126.464 79.8851 126.064 81.9752 125.859 84.0889L125.588 87.2344C125.553 87.6163 125.568 88.0061 125.564 88.3924L125.52 90.4431C125.513 90.8884 125.483 91.337 125.509 91.7797C125.536 92.3885 125.56 92.9924 125.592 93.5991C125.626 94.4171 125.653 95.2322 125.733 96.0484L126.043 99.3623C126.139 100.367 126.315 101.372 126.456 102.375C126.56 103.169 126.706 103.951 126.849 104.741C126.992 105.53 127.141 106.484 127.365 107.331C127.642 108.466 127.917 109.596 128.218 110.72C128.519 111.845 128.865 112.899 129.21 113.977C129.462 114.738 129.724 115.483 130.013 116.211C130.368 117.054 130.659 117.937 131.038 118.77C131.504 119.808 131.973 120.839 132.436 121.873C132.841 122.765 133.32 123.631 133.761 124.501C134.167 125.301 134.614 126.077 135.053 126.862C135.971 128.643 137.015 130.356 138.176 131.989C139.012 133.088 139.963 134.094 141.013 134.991C142.198 136.013 143.635 136.7 145.175 136.982C146.07 137.106 146.981 137.03 147.843 136.76C148.521 136.549 149.164 136.238 149.75 135.836C149.982 135.677 150.198 135.494 150.393 135.29C150.712 134.995 151.01 134.678 151.285 134.341C151.756 133.702 152.15 133.01 152.461 132.279C152.732 131.603 152.954 130.909 153.125 130.202C153.278 129.63 153.4 129.05 153.49 128.464C153.7 126.996 153.784 125.512 153.741 124.03C153.693 122.288 153.504 120.553 153.177 118.842C153.095 118.377 153.021 117.915 152.94 117.449C152.859 116.984 152.753 116.65 152.655 116.255C152.411 115.209 152.171 114.122 151.864 113.08C151.583 112.125 151.336 111.144 151.011 110.207L149.906 107.05C149.61 106.21 149.27 105.389 148.957 104.579C147.651 101.202 146.113 97.9172 144.488 94.6858C144.047 93.8152 143.633 92.9274 143.168 92.0671L141.512 89.0328C141.05 88.1823 140.573 87.3496 140.095 86.5122C139.616 85.6747 139.198 84.8862 138.719 84.089C137.711 82.4179 136.734 80.7393 135.658 79.1087C134.943 77.9973 134.218 76.9019 133.481 75.8057C134.045 74.2362 134.753 72.7218 135.595 71.2818C136.408 69.9565 137.357 68.7199 138.427 67.5921C139.047 67.0246 139.715 66.5128 140.424 66.0625C140.999 65.7699 141.598 65.5273 142.215 65.3376C142.825 65.2165 143.446 65.1476 144.068 65.1314C144.884 65.1849 145.693 65.3131 146.485 65.5145C147.877 65.9806 149.218 66.5878 150.486 67.3265C152.173 68.3769 153.742 69.6067 155.165 70.9944L157.08 72.8861C158.006 73.9259 158.955 74.9672 159.814 76.0524L161.518 78.2053C162 78.8177 162.431 79.4742 162.891 80.1018C163.833 81.4272 164.717 82.7773 165.606 84.1253C166.296 85.1781 166.934 86.2702 167.58 87.3533C167.225 88.6478 166.965 89.9661 166.8 91.2981C166.45 94.1943 166.477 97.1238 166.881 100.013C167.272 102.821 167.962 105.579 168.938 108.24C169.814 110.784 171.117 113.159 172.79 115.264C173.279 115.839 173.799 116.387 174.348 116.905C174.574 117.112 174.812 117.305 175.062 117.483C175.408 117.742 175.775 117.971 176.16 118.169C177.693 118.918 179.69 118.904 180.982 117.677C181.398 117.329 181.737 116.897 181.976 116.409C182.078 116.216 182.162 116.013 182.226 115.804C182.439 115.171 182.565 114.511 182.601 113.844C182.651 112.721 182.581 111.596 182.393 110.487C182.241 109.541 182.058 108.601 181.876 107.662C181.775 107.165 181.627 106.676 181.507 106.187C181.387 105.698 181.227 105.059 181.057 104.505C180.775 103.562 180.49 102.625 180.167 101.694C179.554 99.9251 178.883 98.1811 178.173 96.4535C177.822 95.6196 177.5 94.7734 177.12 93.9518C176.714 93.055 176.33 92.1431 175.892 91.2538C175.408 90.2752 174.918 89.2948 174.424 88.3124C174.154 87.766 173.862 87.2347 173.562 86.7006C173.997 85.4619 174.537 84.2627 175.176 83.1163C175.759 82.1997 176.428 81.3414 177.174 80.553C177.789 79.9877 178.452 79.4779 179.157 79.0296C179.632 78.7945 180.125 78.5983 180.632 78.443C181.096 78.3573 181.566 78.3071 182.038 78.293C182.684 78.3349 183.324 78.4363 183.951 78.5957C185.013 78.9583 186.037 79.423 187.01 79.9834C188.8 81.1279 190.461 82.4631 191.964 83.9657C193.506 85.5958 194.858 87.3952 195.996 89.3295C196.504 90.2638 196.968 91.2165 197.384 92.1898C197.876 93.3969 198.3 94.6311 198.653 95.8864C198.971 96.9292 199.249 97.9836 199.536 99.0338C199.944 100.521 200.34 102.008 200.736 103.494C200.785 103.692 200.831 103.885 200.873 104.079L201.056 104.8C201.239 105.249 201.535 105.643 201.917 105.941C202.299 106.239 202.752 106.433 203.232 106.501C203.711 106.57 204.2 106.512 204.651 106.333C205.101 106.154 205.496 105.859 205.797 105.48C206.03 105.198 206.201 104.871 206.302 104.52C206.402 104.169 206.428 103.8 206.379 103.438C205.942 101.487 205.385 99.5509 204.854 97.6216C204.561 96.5623 204.272 95.5016 203.985 94.4395C203.316 91.9361 202.356 89.5195 201.126 87.2387C199.794 84.763 198.133 82.4786 196.189 80.4475C195.237 79.4516 194.231 78.5088 193.175 77.6234C192.033 76.6985 190.821 75.8653 189.548 75.1315C188.5 74.5011 187.389 73.9819 186.232 73.5824C185.518 73.3389 184.787 73.1439 184.046 72.9986C183.167 72.8521 182.275 72.7986 181.384 72.839C180.602 72.8776 179.827 73.011 179.077 73.2362C178.465 73.3918 177.867 73.6012 177.291 73.8618C175.998 74.4766 174.811 75.2941 173.775 76.2833C172.758 77.2175 171.851 78.264 171.07 79.4027C170.742 79.8911 170.433 80.3998 170.154 80.9364C169.537 80.0022 168.925 79.0658 168.305 78.1267C167.798 77.3585 167.237 76.6247 166.702 75.8737C166.227 75.2071 165.735 74.5585 165.23 73.9161C164.724 73.2737 164.142 72.4911 163.548 71.8168L161.439 69.4264C161.063 69.0106 160.605 68.5894 160.193 68.1831L158.738 66.746C157.192 65.2215 155.473 63.8837 153.616 62.7598C151.12 61.25 148.418 60.0279 145.487 59.7061C144.726 59.6318 143.961 59.6143 143.197 59.6539C142.566 59.6825 141.939 59.7734 141.325 59.9253C140.572 60.0937 139.834 60.3239 139.118 60.6134C138.341 60.9557 137.595 61.3657 136.889 61.8386C135.773 62.5974 134.752 63.4895 133.852 64.4952C132.947 65.4885 132.137 66.5637 131.432 67.7068C130.84 68.6333 130.282 69.5975 129.774 70.5863C129.599 70.3615 129.427 70.1582 129.241 69.9208C128.35 68.8264 127.462 67.7417 126.496 66.7135C125.567 65.7081 124.589 64.75 123.565 63.8426C122.451 62.8979 121.254 62.0569 119.987 61.3302C118.976 60.7334 117.909 60.2365 116.802 59.8465C115.438 59.342 114.005 59.0508 112.552 58.9834C111.759 58.9474 110.963 58.9844 110.176 59.0938C109.389 59.2243 108.616 59.4287 107.867 59.7042C107.138 59.9802 106.438 60.3251 105.775 60.7343C105.166 61.0914 104.585 61.4951 104.038 61.9417C102.944 62.8541 101.971 63.9041 101.145 65.0655L99.8941 63.4567C99.4062 62.8297 98.8542 62.2411 98.3314 61.6403C97.7363 60.9493 97.1602 60.2217 96.515 59.5346L94.1514 57.0564C93.5345 56.4091 92.9252 55.7528 92.2754 55.1365L89.6549 52.6345C89.032 52.0413 88.3406 51.5172 87.6842 50.9669C86.4769 49.9538 85.2528 48.9822 83.9629 48.0728C82.8162 47.2581 81.6267 46.5189 80.4218 45.7976C79.2848 45.1135 78.11 44.4945 76.9029 43.9435C75.6372 43.4029 74.3319 42.9601 72.9985 42.6192C71.6638 42.2445 70.2912 42.0212 68.9065 41.9537C67.4651 41.8618 66.0181 41.9872 64.6139 42.3255C62.9692 42.6875 61.4043 43.3463 59.9958 44.2696C58.8437 44.9919 57.8032 45.8786 56.9073 46.9016C55.9506 48.002 55.1069 49.1957 54.3888 50.4648C53.9095 51.2737 53.4981 52.1208 53.1588 52.9976C52.9729 53.4835 52.7614 53.9629 52.6187 54.442C52.2575 55.5069 51.8991 56.5648 51.5913 57.6473L51.3012 58.6765C50.8739 58.5751 50.4278 58.4701 49.9987 58.4326C49.2605 58.3433 48.5163 58.3129 47.7733 58.3418C47.1424 58.3651 46.5154 58.4521 45.902 58.6014C45.0538 58.7923 44.2235 59.0554 43.4201 59.3879C42.1742 59.9317 41.0032 60.6331 39.9356 61.4747C38.7847 62.382 37.7416 63.4182 36.8268 64.5631C35.9573 65.6839 35.1889 66.8796 34.5306 68.136C33.9096 69.3181 33.3739 70.5432 32.9278 71.8017C32.5445 72.8414 32.2167 73.9036 31.8701 74.9623C31.5711 75.8747 31.3225 76.8117 31.0463 77.7375C30.7111 78.8775 30.4222 80.0324 30.1244 81.1796C29.6747 82.8386 29.3242 84.5017 29.0272 86.1825C28.87 87.0638 28.6844 87.9457 28.5647 88.8342L28.129 92.2038C28.0054 93.1513 27.952 94.1153 27.8708 95.068C27.8004 95.8554 27.7516 96.6395 27.7167 97.4292C27.6524 98.5585 27.5792 99.68 27.565 100.805C27.5508 101.931 27.5297 103.163 27.5144 104.34C27.4915 105.963 27.5129 107.596 27.5685 109.214L27.6933 112.824C27.7232 113.673 27.8338 114.522 27.8915 115.382C27.954 116.13 28.0048 116.878 28.091 117.628L28.1259 117.711L28.1154 117.727ZM58.0092 108.622C57.6382 106.677 57.2741 104.735 56.9609 102.777C56.6477 100.819 56.3606 98.7871 56.0956 96.7803C55.8712 95.0607 55.6801 93.3386 55.4988 91.6123C55.3174 89.8861 55.1602 88.0807 55.0564 86.2931C54.9526 84.5056 54.886 82.8745 54.815 81.1649C54.7861 80.4825 54.8141 79.799 54.8039 79.1202C54.809 78.3143 54.8103 77.5081 54.8076 76.7017L54.873 74.6477C54.8953 73.9781 54.8802 73.3013 54.9457 72.6251C55.0857 70.953 55.209 69.2822 55.4011 67.6111L55.4841 66.9218C55.8608 67.2167 56.2299 67.5206 56.601 67.8294C57.2146 68.346 57.8128 68.8807 58.3733 69.4484C59.0255 70.0886 59.6656 70.7319 60.2937 71.3784C61.3808 72.597 62.5097 73.7923 63.5612 75.049C64.203 75.8236 64.8518 76.6011 65.4985 77.3736C65.6853 77.5993 65.8421 77.849 66.0163 78.0856C66.4021 78.6064 66.7849 79.1341 67.1658 79.6569C67.5466 80.1798 67.9482 80.7111 68.306 81.2609L70.2792 84.2708C71.1633 85.6208 71.9696 87.0725 72.8005 88.4736C73.5506 89.8055 74.3153 91.1311 75.0139 92.4904C75.9141 94.247 76.824 95.9995 77.6678 97.7856C79.3881 101.436 81.0479 105.106 82.6707 108.797C83.398 110.443 84.0646 112.108 84.7187 113.785C85.1006 114.692 85.4015 115.639 85.7444 116.562C86.0005 117.252 86.2566 117.942 86.498 118.639L87.6951 122.096C87.9678 122.894 88.2016 123.708 88.45 124.517C88.6983 125.325 88.939 126.033 89.1487 126.817L89.9297 129.818L90.6579 133.157C90.8806 134.177 91.0378 135.219 91.2243 136.248C91.4108 137.278 91.5337 138.265 91.6717 139.275C91.959 141.28 92.1105 143.303 92.1253 145.33C92.0364 147.788 91.6607 150.227 91.0058 152.598C90.5221 154.195 89.8674 155.735 89.0531 157.192C88.5021 158.069 87.8679 158.892 87.1594 159.648C86.7507 160.009 86.3113 160.335 85.8462 160.62C85.4262 160.834 84.991 161.017 84.5442 161.168C84.1696 161.242 83.7901 161.288 83.4088 161.307C83.0364 161.278 82.6667 161.221 82.3031 161.135C81.7733 160.947 81.2595 160.716 80.7666 160.445C79.7365 159.764 78.7755 158.984 77.8976 158.116C77.2614 157.437 76.6601 156.731 76.0812 156.01C75.5836 155.387 75.0826 154.743 74.6471 154.077C74.0987 153.251 73.5552 152.424 73.0263 151.59C72.2818 150.463 71.6392 149.263 70.9764 148.084C71.0154 148.177 71.0788 148.259 71.1275 148.348C70.6617 147.396 70.189 146.428 69.7095 145.443C69.3687 144.743 69.071 144.035 68.7644 143.321C68.403 142.462 68.0104 141.612 67.6784 140.741C67.2606 139.658 66.8468 138.575 66.4369 137.492C65.7987 135.826 65.2211 134.14 64.624 132.463C64.0269 130.785 63.4768 129.151 62.9497 127.49C62.4976 126.061 61.9995 124.646 61.5954 123.209C61.1913 121.772 60.752 120.183 60.3268 118.668C59.4986 115.337 58.646 112.016 58.0007 108.642L58.0092 108.622ZM60.4525 119.103L60.5136 119.33L60.4525 119.103ZM102.289 114.121C102.105 113.234 101.905 112.348 101.75 111.477C101.543 110.302 101.335 109.126 101.132 107.949C100.852 106.344 100.588 104.734 100.377 103.1C100.229 101.945 100.08 100.785 99.937 99.6284C99.8192 98.7078 99.7759 97.7731 99.7054 96.8555C99.6413 96.1305 99.5862 95.4131 99.5672 94.6863C99.5414 93.7385 99.5204 92.7886 99.5161 91.8374L99.5626 90.2161C99.5817 89.6341 99.5861 89.0581 99.6246 88.4678C99.7492 87.0319 99.8502 85.5944 100.048 84.1679C100.143 83.439 100.243 82.7081 100.344 81.982C100.446 81.2559 100.652 80.4347 100.804 79.6644C101.026 78.5147 101.358 77.3934 101.669 76.2636L101.939 75.4726C102.35 76.0686 102.764 76.6694 103.164 77.2528C103.639 77.943 104.128 78.627 104.577 79.3393C105.322 80.5238 106.072 81.7062 106.818 82.8907C107.81 84.4708 108.743 86.099 109.656 87.7237L110.946 90.0914C111.329 90.797 111.727 91.4846 112.09 92.2102C112.928 93.8726 113.8 95.5088 114.588 97.2036C115.377 98.8983 116.244 100.686 117.011 102.453C117.777 104.22 118.613 106.124 119.369 107.987C120.03 109.557 120.635 111.145 121.23 112.749C121.825 114.353 122.413 116.023 122.972 117.677C123.53 119.33 124.024 120.954 124.528 122.601C124.943 123.942 125.264 125.317 125.609 126.682C125.557 126.56 125.54 126.424 125.506 126.289L126.17 129.626C126.621 132.044 126.827 134.502 126.785 136.962C126.743 138.813 126.489 140.654 126.028 142.447C125.803 143.156 125.516 143.843 125.171 144.502C124.943 144.834 124.693 145.151 124.421 145.449C124.208 145.637 123.982 145.811 123.745 145.969C123.559 146.047 123.374 146.125 123.189 146.203C122.912 146.25 122.633 146.283 122.352 146.302C121.911 146.264 121.472 146.193 121.041 146.091C120.134 145.774 119.258 145.374 118.425 144.896C117.052 144.013 115.775 142.988 114.617 141.837C112.588 139.647 110.82 137.227 109.349 134.629C108.577 133.231 107.899 131.743 107.195 130.288C106.932 129.745 106.723 129.167 106.511 128.596L105.719 126.633C105.459 126.014 105.291 125.343 105.079 124.704L104.44 122.762C104.226 122.118 104.069 121.443 103.886 120.791C103.723 120.228 103.568 119.668 103.406 119.105C103.02 117.453 102.63 115.803 102.293 114.143L102.289 114.121ZM132.646 105.871C132.458 104.865 132.273 103.852 132.083 102.842C131.95 102.117 131.875 101.379 131.773 100.647C131.672 99.9148 131.569 99.3034 131.497 98.6276C131.4 97.6182 131.305 96.6019 131.212 95.5904C131.069 94.0777 131.038 92.558 130.971 91.0361C130.989 89.7828 130.995 88.5288 131.112 87.2797L131.346 84.5348C131.393 83.9925 131.464 83.4517 131.571 82.9015C132.937 85.0703 134.242 87.2825 135.502 89.5131C135.696 89.8507 135.89 90.1882 136.081 90.5326C136.956 92.1334 137.842 93.735 138.685 95.355C139.638 97.2502 140.547 99.1236 141.45 101.023C143.013 104.393 144.396 107.845 145.591 111.364C146.05 112.686 146.432 114.029 146.825 115.374C146.952 115.894 147.061 116.371 147.183 116.865C147.305 117.359 147.423 117.831 147.508 118.318L147.925 120.755C148.155 122.17 148.271 123.602 148.269 125.036C148.228 126.473 148.034 127.901 147.692 129.297C147.542 129.774 147.353 130.237 147.127 130.683C147.012 130.846 146.895 131.005 146.757 131.166L146.484 131.379L146.25 131.477L146.064 131.498L145.829 131.459C145.618 131.378 145.412 131.285 145.212 131.179C144.724 130.835 144.262 130.453 143.831 130.039C142.518 128.559 141.359 126.951 140.369 125.239C139.785 124.193 139.206 123.157 138.666 122.092C138.298 121.369 137.947 120.672 137.569 119.924C137.191 119.176 136.884 118.405 136.544 117.652C135.916 116.269 135.368 114.858 134.813 113.444C134.587 112.908 134.436 112.345 134.261 111.793C134.016 111.047 133.767 110.279 133.535 109.55C133.223 108.332 132.898 107.109 132.668 105.868L132.646 105.871ZM136.216 90.7572C136.273 90.8937 136.358 91.0131 136.435 91.1414C136.377 91.0049 136.288 90.8876 136.216 90.7572ZM172.126 96.3812L172.21 96.5811C172.986 98.4245 173.717 100.281 174.437 102.142C175.052 103.726 175.536 105.354 176.02 106.981C176.219 107.781 176.41 108.574 176.572 109.384C176.735 110.194 176.857 110.877 176.947 111.637C176.45 111.005 175.993 110.342 175.578 109.653C174.518 107.622 173.697 105.475 173.131 103.255C172.582 101.001 172.243 98.7014 172.117 96.3853L172.126 96.3812Z"/>
</mask>
<path d="M28.1154 117.727C28.2544 118.903 28.3983 120.077 28.5373 121.252C28.6435 122.132 28.7928 123.005 28.9206 123.881C29.0324 124.638 29.1373 125.391 29.2972 126.139C29.5093 127.284 29.7264 128.427 29.9386 129.572C30.112 130.475 30.3265 131.366 30.502 132.274C30.8945 134.107 31.3538 135.934 31.7951 137.746C32.2588 139.652 32.8163 141.536 33.3072 143.424C33.865 145.486 34.4618 147.531 35.0392 149.584C36.085 153.214 37.3265 156.79 38.554 160.361C39.1111 161.998 39.7385 163.611 40.3903 165.214C41.1006 166.901 41.7906 168.609 42.5789 170.263C43.4879 172.177 44.3919 174.092 45.4667 175.936C45.9442 176.757 46.3995 177.593 46.914 178.393C47.4286 179.192 48.0147 180.094 48.5839 180.927C49.2901 181.951 49.9846 182.973 50.6246 184.03C51.2459 185.144 51.809 186.291 52.3116 187.464C52.5878 188.146 53.1235 188.69 53.8007 188.976C54.478 189.263 55.2413 189.269 55.9228 188.992C56.6044 188.716 57.1482 188.18 57.4348 187.503C57.7214 186.826 57.7272 186.063 57.4509 185.381C56.9943 184.296 56.4793 183.236 55.9082 182.207C55.4899 181.459 55.0688 180.718 54.6281 179.985C54.3243 179.481 53.9737 179.003 53.6476 178.514C52.9744 177.529 52.3054 176.554 51.6615 175.556C51.1126 174.702 50.6055 173.825 50.0936 172.949L48.8808 170.641C48.4189 169.762 48.026 168.843 47.601 167.942C46.7627 166.183 46.0344 164.371 45.2964 162.563C43.8676 159.06 42.714 155.447 41.5185 151.857C40.6822 149.339 39.9532 146.775 39.2189 144.185C38.5025 141.72 37.8759 139.222 37.2298 136.733C36.8221 135.096 36.4242 133.455 36.0624 131.805C35.8579 130.869 35.6298 129.932 35.4518 128.991L34.8258 125.649C34.6847 124.905 34.579 124.163 34.4615 123.42C34.3291 122.505 34.1724 121.601 34.0615 120.683C33.8286 118.767 33.5998 116.859 33.4365 114.93C33.3424 113.793 33.2385 112.66 33.1993 111.517C33.1601 110.374 33.0932 109.11 33.0795 107.905C33.0657 106.699 33.0222 105.368 33.0407 104.103C33.0524 103.004 33.0681 101.905 33.0877 100.806C33.1766 99.0804 33.2565 97.3475 33.4094 95.6241C33.4851 94.754 33.5352 93.8775 33.6464 93.0098L34.0804 89.7041C34.1872 88.8669 34.3621 88.0413 34.5174 87.2239C34.6727 86.4064 34.7939 85.7125 34.9662 84.9625C35.1747 84.094 35.3359 83.2224 35.5623 82.3693L36.3266 79.4528C37.3142 76.1667 38.2787 72.7984 39.9905 69.7872C40.6507 68.7323 41.4142 67.7455 42.2695 66.8415C43.0192 66.1396 43.8361 65.513 44.7084 64.9709C45.396 64.604 46.1159 64.3009 46.8589 64.0656C47.3993 63.9567 47.9476 63.891 48.4984 63.8691C49.0972 63.9063 49.6919 63.9919 50.2768 64.1251C50.0665 65.6029 49.8798 67.0823 49.7542 68.5703L49.4593 71.8519C49.4359 72.1373 49.4452 72.4319 49.4315 72.7132L49.3639 74.8026C49.2973 76.949 49.3063 79.098 49.3036 81.2462C49.2984 82.0521 49.3572 82.8598 49.3894 83.6728C49.4217 84.4859 49.4391 85.3454 49.4983 86.1816C49.6322 88.0542 49.7465 89.9349 49.9422 91.8044C50.1587 93.7914 50.378 95.7715 50.6396 97.7568C50.9013 99.742 51.1752 101.756 51.5126 103.744C51.85 105.732 52.1902 107.604 52.5599 109.532C52.9072 111.366 53.3485 113.178 53.7557 115.005C53.9279 115.782 54.1473 116.562 54.3369 117.326C54.6214 118.452 54.8816 119.589 55.1857 120.706C55.6624 122.412 56.0952 124.135 56.6338 125.837C57.2297 127.716 57.8178 129.604 58.4352 131.48C59.102 133.446 59.7834 135.406 60.4795 137.359C61.1292 139.175 61.8208 140.968 62.5095 142.768C62.8272 143.604 63.2054 144.421 63.5524 145.245C63.8582 145.972 64.1682 146.708 64.5049 147.399C64.9938 148.41 65.4854 149.414 65.9722 150.421C66.2068 150.896 66.495 151.349 66.7444 151.778L67.7996 153.63C68.2084 154.342 68.6447 154.996 69.1036 155.704C69.9237 156.943 70.7182 158.176 71.6598 159.336C72.5393 160.441 73.4842 161.492 74.4895 162.484C75.4426 163.439 76.5034 164.279 77.6505 164.989C78.2657 165.356 78.9063 165.679 79.5674 165.955C80.2313 166.226 80.917 166.441 81.6169 166.597C82.3345 166.749 83.069 166.807 83.8016 166.768C84.6754 166.74 85.5419 166.597 86.3784 166.343C89.1049 165.551 91.3079 163.625 92.9316 161.346C93.6931 160.251 94.3575 159.091 94.9173 157.88C95.5215 156.547 96.0153 155.166 96.3939 153.751C97.1383 151.139 97.5463 148.441 97.6079 145.726C97.6572 143.602 97.5406 141.479 97.2591 139.374C97.1244 138.386 96.9974 137.389 96.8489 136.395L96.2493 133.048C96.0931 132.172 95.8742 131.311 95.6887 130.448C95.4788 129.486 95.2515 128.536 95.0026 127.591C94.7178 126.505 94.4399 125.422 94.1551 124.337C93.9029 123.369 93.5596 122.417 93.2614 121.463C92.6951 119.641 92.0556 117.849 91.4288 116.046C88.9195 108.79 85.6656 101.824 82.3894 94.8737C81.6039 93.2123 80.7327 91.5928 79.8956 89.9589C79.4963 89.174 79.0364 88.4089 78.6058 87.6315C78.1195 86.7627 77.6507 85.8808 77.142 85.0271C76.1379 83.3372 75.1455 81.6481 74.0744 80.0037L72.9901 78.3417C72.8071 78.0571 72.6319 77.7635 72.4314 77.4919C71.79 76.6138 71.147 75.7363 70.5024 74.8596C70.0581 74.2543 69.6047 73.6817 69.1255 73.1027C68.5009 72.3553 67.9091 71.5768 67.2565 70.8584L64.9655 68.3209C64.2908 67.5774 63.5707 66.8759 62.8583 66.1654L61.6524 64.9508C60.9779 64.276 60.2427 63.6613 59.5115 63.0563C58.5479 62.2597 57.5336 61.5265 56.4749 60.8615L56.6038 60.2676C56.7263 59.6994 56.898 59.1391 57.0454 58.5891L57.0148 58.6938C57.6312 56.6591 58.4363 54.6865 59.4198 52.8017C60.0398 51.8103 60.7541 50.881 61.5526 50.0267C62.7196 48.9209 64.1442 48.1239 65.6971 47.7079C66.5005 47.5413 67.3178 47.4509 68.1382 47.438C69.4959 47.514 70.8416 47.7346 72.1525 48.0961C74.2323 48.7832 76.2278 49.7034 78.1007 50.8391C79.0169 51.4064 79.9124 52.0016 80.787 52.6246C81.5533 53.1631 82.3148 53.7037 83.0354 54.3246L85.6829 56.5225C86.1887 56.9468 86.6568 57.4042 87.1298 57.8595L89.1144 59.7509C90.193 60.8813 91.3009 61.9994 92.3264 63.1808C93.6057 64.6515 94.9045 66.114 96.1112 67.644L98.0793 70.1509C97.3454 71.7383 96.7438 73.3836 96.2809 75.07L95.8332 76.7339C95.7264 77.1348 95.5939 77.5292 95.503 77.9406L94.8912 81.0284C94.8401 81.3025 94.8098 81.5851 94.7705 81.8599C94.6814 82.5347 94.5902 83.2045 94.4747 83.8847C94.3558 84.7614 94.3029 85.6448 94.2284 86.5315C94.1539 87.4182 94.1038 88.1856 94.0775 89.0234C94.0418 90.1521 93.958 91.2896 93.9911 92.4181L94.0848 95.8863C94.1063 96.7555 94.2132 97.6233 94.2876 98.4818C94.594 102.142 95.1458 105.784 95.7749 109.406C95.9453 110.356 96.0863 111.319 96.2782 112.266L96.961 115.646C97.1213 116.423 97.3081 117.194 97.49 117.967C97.7348 119.012 97.9601 120.065 98.2341 121.098L99.204 124.548C99.4337 125.352 99.719 126.139 99.9848 126.934C100.251 127.729 100.469 128.453 100.777 129.213C101.213 130.246 101.617 131.288 102.032 132.33C102.155 132.622 102.31 132.908 102.45 133.199L103.373 135.106C104.263 136.906 105.271 138.645 106.391 140.312C107.898 142.593 109.655 144.7 111.63 146.591C112.503 147.421 113.443 148.177 114.441 148.852C115.66 149.701 116.968 150.413 118.343 150.975C119.727 151.545 121.212 151.824 122.707 151.796C123.497 151.775 124.279 151.639 125.029 151.393C125.801 151.126 126.534 150.758 127.209 150.297C128.391 149.434 129.365 148.316 130.057 147.026C130.716 145.804 131.211 144.501 131.531 143.15C132.236 140.557 132.307 137.835 132.267 135.176C132.249 133.001 132.033 130.832 131.623 128.696C131.376 127.44 131.14 126.184 130.84 124.939C130.572 123.903 130.309 122.878 130.049 121.862C129.862 121.131 129.641 120.415 129.418 119.693C129.142 118.793 128.882 117.875 128.58 116.98C127.988 115.232 127.417 113.48 126.775 111.753L125.608 108.61C125.293 107.755 124.897 106.923 124.578 106.07C123.821 104.202 123.016 102.359 122.236 100.506C121.456 98.6526 120.624 96.9763 119.797 95.2174C118.971 93.4585 118.124 91.8572 117.286 90.1781C116.941 89.4964 116.558 88.8312 116.189 88.1597C115.687 87.2227 115.187 86.3024 114.688 85.3988C114.157 84.4109 113.568 83.4476 112.998 82.4762C112.555 81.7098 112.13 80.9185 111.66 80.1693C111.084 79.2638 110.507 78.3488 109.93 77.4242C109.526 76.7908 109.142 76.1373 108.72 75.517C107.369 73.5483 106.025 71.5707 104.627 69.6275C105.265 68.594 106 67.6248 106.825 66.7334C107.418 66.1913 108.057 65.703 108.736 65.2742C109.28 64.9908 109.846 64.7526 110.429 64.5618C110.969 64.4546 111.517 64.389 112.068 64.3654C112.815 64.4185 113.556 64.5391 114.281 64.7256C115.384 65.0909 116.448 65.5638 117.458 66.1377C119.047 67.1812 120.519 68.3918 121.849 69.7488C122.81 70.7624 123.7 71.8402 124.572 72.9025C125.099 73.5416 125.612 74.1869 126.095 74.8445C126.533 75.4351 126.986 76.0195 127.416 76.6191C127.288 77.0233 127.183 77.4291 127.054 77.8451C126.464 79.8851 126.064 81.9752 125.859 84.0889L125.588 87.2344C125.553 87.6163 125.568 88.0061 125.564 88.3924L125.52 90.4431C125.513 90.8884 125.483 91.337 125.509 91.7797C125.536 92.3885 125.56 92.9924 125.592 93.5991C125.626 94.4171 125.653 95.2322 125.733 96.0484L126.043 99.3623C126.139 100.367 126.315 101.372 126.456 102.375C126.56 103.169 126.706 103.951 126.849 104.741C126.992 105.53 127.141 106.484 127.365 107.331C127.642 108.466 127.917 109.596 128.218 110.72C128.519 111.845 128.865 112.899 129.21 113.977C129.462 114.738 129.724 115.483 130.013 116.211C130.368 117.054 130.659 117.937 131.038 118.77C131.504 119.808 131.973 120.839 132.436 121.873C132.841 122.765 133.32 123.631 133.761 124.501C134.167 125.301 134.614 126.077 135.053 126.862C135.971 128.643 137.015 130.356 138.176 131.989C139.012 133.088 139.963 134.094 141.013 134.991C142.198 136.013 143.635 136.7 145.175 136.982C146.07 137.106 146.981 137.03 147.843 136.76C148.521 136.549 149.164 136.238 149.75 135.836C149.982 135.677 150.198 135.494 150.393 135.29C150.712 134.995 151.01 134.678 151.285 134.341C151.756 133.702 152.15 133.01 152.461 132.279C152.732 131.603 152.954 130.909 153.125 130.202C153.278 129.63 153.4 129.05 153.49 128.464C153.7 126.996 153.784 125.512 153.741 124.03C153.693 122.288 153.504 120.553 153.177 118.842C153.095 118.377 153.021 117.915 152.94 117.449C152.859 116.984 152.753 116.65 152.655 116.255C152.411 115.209 152.171 114.122 151.864 113.08C151.583 112.125 151.336 111.144 151.011 110.207L149.906 107.05C149.61 106.21 149.27 105.389 148.957 104.579C147.651 101.202 146.113 97.9172 144.488 94.6858C144.047 93.8152 143.633 92.9274 143.168 92.0671L141.512 89.0328C141.05 88.1823 140.573 87.3496 140.095 86.5122C139.616 85.6747 139.198 84.8862 138.719 84.089C137.711 82.4179 136.734 80.7393 135.658 79.1087C134.943 77.9973 134.218 76.9019 133.481 75.8057C134.045 74.2362 134.753 72.7218 135.595 71.2818C136.408 69.9565 137.357 68.7199 138.427 67.5921C139.047 67.0246 139.715 66.5128 140.424 66.0625C140.999 65.7699 141.598 65.5273 142.215 65.3376C142.825 65.2165 143.446 65.1476 144.068 65.1314C144.884 65.1849 145.693 65.3131 146.485 65.5145C147.877 65.9806 149.218 66.5878 150.486 67.3265C152.173 68.3769 153.742 69.6067 155.165 70.9944L157.08 72.8861C158.006 73.9259 158.955 74.9672 159.814 76.0524L161.518 78.2053C162 78.8177 162.431 79.4742 162.891 80.1018C163.833 81.4272 164.717 82.7773 165.606 84.1253C166.296 85.1781 166.934 86.2702 167.58 87.3533C167.225 88.6478 166.965 89.9661 166.8 91.2981C166.45 94.1943 166.477 97.1238 166.881 100.013C167.272 102.821 167.962 105.579 168.938 108.24C169.814 110.784 171.117 113.159 172.79 115.264C173.279 115.839 173.799 116.387 174.348 116.905C174.574 117.112 174.812 117.305 175.062 117.483C175.408 117.742 175.775 117.971 176.16 118.169C177.693 118.918 179.69 118.904 180.982 117.677C181.398 117.329 181.737 116.897 181.976 116.409C182.078 116.216 182.162 116.013 182.226 115.804C182.439 115.171 182.565 114.511 182.601 113.844C182.651 112.721 182.581 111.596 182.393 110.487C182.241 109.541 182.058 108.601 181.876 107.662C181.775 107.165 181.627 106.676 181.507 106.187C181.387 105.698 181.227 105.059 181.057 104.505C180.775 103.562 180.49 102.625 180.167 101.694C179.554 99.9251 178.883 98.1811 178.173 96.4535C177.822 95.6196 177.5 94.7734 177.12 93.9518C176.714 93.055 176.33 92.1431 175.892 91.2538C175.408 90.2752 174.918 89.2948 174.424 88.3124C174.154 87.766 173.862 87.2347 173.562 86.7006C173.997 85.4619 174.537 84.2627 175.176 83.1163C175.759 82.1997 176.428 81.3414 177.174 80.553C177.789 79.9877 178.452 79.4779 179.157 79.0296C179.632 78.7945 180.125 78.5983 180.632 78.443C181.096 78.3573 181.566 78.3071 182.038 78.293C182.684 78.3349 183.324 78.4363 183.951 78.5957C185.013 78.9583 186.037 79.423 187.01 79.9834C188.8 81.1279 190.461 82.4631 191.964 83.9657C193.506 85.5958 194.858 87.3952 195.996 89.3295C196.504 90.2638 196.968 91.2165 197.384 92.1898C197.876 93.3969 198.3 94.6311 198.653 95.8864C198.971 96.9292 199.249 97.9836 199.536 99.0338C199.944 100.521 200.34 102.008 200.736 103.494C200.785 103.692 200.831 103.885 200.873 104.079L201.056 104.8C201.239 105.249 201.535 105.643 201.917 105.941C202.299 106.239 202.752 106.433 203.232 106.501C203.711 106.57 204.2 106.512 204.651 106.333C205.101 106.154 205.496 105.859 205.797 105.48C206.03 105.198 206.201 104.871 206.302 104.52C206.402 104.169 206.428 103.8 206.379 103.438C205.942 101.487 205.385 99.5509 204.854 97.6216C204.561 96.5623 204.272 95.5016 203.985 94.4395C203.316 91.9361 202.356 89.5195 201.126 87.2387C199.794 84.763 198.133 82.4786 196.189 80.4475C195.237 79.4516 194.231 78.5088 193.175 77.6234C192.033 76.6985 190.821 75.8653 189.548 75.1315C188.5 74.5011 187.389 73.9819 186.232 73.5824C185.518 73.3389 184.787 73.1439 184.046 72.9986C183.167 72.8521 182.275 72.7986 181.384 72.839C180.602 72.8776 179.827 73.011 179.077 73.2362C178.465 73.3918 177.867 73.6012 177.291 73.8618C175.998 74.4766 174.811 75.2941 173.775 76.2833C172.758 77.2175 171.851 78.264 171.07 79.4027C170.742 79.8911 170.433 80.3998 170.154 80.9364C169.537 80.0022 168.925 79.0658 168.305 78.1267C167.798 77.3585 167.237 76.6247 166.702 75.8737C166.227 75.2071 165.735 74.5585 165.23 73.9161C164.724 73.2737 164.142 72.4911 163.548 71.8168L161.439 69.4264C161.063 69.0106 160.605 68.5894 160.193 68.1831L158.738 66.746C157.192 65.2215 155.473 63.8837 153.616 62.7598C151.12 61.25 148.418 60.0279 145.487 59.7061C144.726 59.6318 143.961 59.6143 143.197 59.6539C142.566 59.6825 141.939 59.7734 141.325 59.9253C140.572 60.0937 139.834 60.3239 139.118 60.6134C138.341 60.9557 137.595 61.3657 136.889 61.8386C135.773 62.5974 134.752 63.4895 133.852 64.4952C132.947 65.4885 132.137 66.5637 131.432 67.7068C130.84 68.6333 130.282 69.5975 129.774 70.5863C129.599 70.3615 129.427 70.1582 129.241 69.9208C128.35 68.8264 127.462 67.7417 126.496 66.7135C125.567 65.7081 124.589 64.75 123.565 63.8426C122.451 62.8979 121.254 62.0569 119.987 61.3302C118.976 60.7334 117.909 60.2365 116.802 59.8465C115.438 59.342 114.005 59.0508 112.552 58.9834C111.759 58.9474 110.963 58.9844 110.176 59.0938C109.389 59.2243 108.616 59.4287 107.867 59.7042C107.138 59.9802 106.438 60.3251 105.775 60.7343C105.166 61.0914 104.585 61.4951 104.038 61.9417C102.944 62.8541 101.971 63.9041 101.145 65.0655L99.8941 63.4567C99.4062 62.8297 98.8542 62.2411 98.3314 61.6403C97.7363 60.9493 97.1602 60.2217 96.515 59.5346L94.1514 57.0564C93.5345 56.4091 92.9252 55.7528 92.2754 55.1365L89.6549 52.6345C89.032 52.0413 88.3406 51.5172 87.6842 50.9669C86.4769 49.9538 85.2528 48.9822 83.9629 48.0728C82.8162 47.2581 81.6267 46.5189 80.4218 45.7976C79.2848 45.1135 78.11 44.4945 76.9029 43.9435C75.6372 43.4029 74.3319 42.9601 72.9985 42.6192C71.6638 42.2445 70.2912 42.0212 68.9065 41.9537C67.4651 41.8618 66.0181 41.9872 64.6139 42.3255C62.9692 42.6875 61.4043 43.3463 59.9958 44.2696C58.8437 44.9919 57.8032 45.8786 56.9073 46.9016C55.9506 48.002 55.1069 49.1957 54.3888 50.4648C53.9095 51.2737 53.4981 52.1208 53.1588 52.9976C52.9729 53.4835 52.7614 53.9629 52.6187 54.442C52.2575 55.5069 51.8991 56.5648 51.5913 57.6473L51.3012 58.6765C50.8739 58.5751 50.4278 58.4701 49.9987 58.4326C49.2605 58.3433 48.5163 58.3129 47.7733 58.3418C47.1424 58.3651 46.5154 58.4521 45.902 58.6014C45.0538 58.7923 44.2235 59.0554 43.4201 59.3879C42.1742 59.9317 41.0032 60.6331 39.9356 61.4747C38.7847 62.382 37.7416 63.4182 36.8268 64.5631C35.9573 65.6839 35.1889 66.8796 34.5306 68.136C33.9096 69.3181 33.3739 70.5432 32.9278 71.8017C32.5445 72.8414 32.2167 73.9036 31.8701 74.9623C31.5711 75.8747 31.3225 76.8117 31.0463 77.7375C30.7111 78.8775 30.4222 80.0324 30.1244 81.1796C29.6747 82.8386 29.3242 84.5017 29.0272 86.1825C28.87 87.0638 28.6844 87.9457 28.5647 88.8342L28.129 92.2038C28.0054 93.1513 27.952 94.1153 27.8708 95.068C27.8004 95.8554 27.7516 96.6395 27.7167 97.4292C27.6524 98.5585 27.5792 99.68 27.565 100.805C27.5508 101.931 27.5297 103.163 27.5144 104.34C27.4915 105.963 27.5129 107.596 27.5685 109.214L27.6933 112.824C27.7232 113.673 27.8338 114.522 27.8915 115.382C27.954 116.13 28.0048 116.878 28.091 117.628L28.1259 117.711L28.1154 117.727ZM58.0092 108.622C57.6382 106.677 57.2741 104.735 56.9609 102.777C56.6477 100.819 56.3606 98.7871 56.0956 96.7803C55.8712 95.0607 55.6801 93.3386 55.4988 91.6123C55.3174 89.8861 55.1602 88.0807 55.0564 86.2931C54.9526 84.5056 54.886 82.8745 54.815 81.1649C54.7861 80.4825 54.8141 79.799 54.8039 79.1202C54.809 78.3143 54.8103 77.5081 54.8076 76.7017L54.873 74.6477C54.8953 73.9781 54.8802 73.3013 54.9457 72.6251C55.0857 70.953 55.209 69.2822 55.4011 67.6111L55.4841 66.9218C55.8608 67.2167 56.2299 67.5206 56.601 67.8294C57.2146 68.346 57.8128 68.8807 58.3733 69.4484C59.0255 70.0886 59.6656 70.7319 60.2937 71.3784C61.3808 72.597 62.5097 73.7923 63.5612 75.049C64.203 75.8236 64.8518 76.6011 65.4985 77.3736C65.6853 77.5993 65.8421 77.849 66.0163 78.0856C66.4021 78.6064 66.7849 79.1341 67.1658 79.6569C67.5466 80.1798 67.9482 80.7111 68.306 81.2609L70.2792 84.2708C71.1633 85.6208 71.9696 87.0725 72.8005 88.4736C73.5506 89.8055 74.3153 91.1311 75.0139 92.4904C75.9141 94.247 76.824 95.9995 77.6678 97.7856C79.3881 101.436 81.0479 105.106 82.6707 108.797C83.398 110.443 84.0646 112.108 84.7187 113.785C85.1006 114.692 85.4015 115.639 85.7444 116.562C86.0005 117.252 86.2566 117.942 86.498 118.639L87.6951 122.096C87.9678 122.894 88.2016 123.708 88.45 124.517C88.6983 125.325 88.939 126.033 89.1487 126.817L89.9297 129.818L90.6579 133.157C90.8806 134.177 91.0378 135.219 91.2243 136.248C91.4108 137.278 91.5337 138.265 91.6717 139.275C91.959 141.28 92.1105 143.303 92.1253 145.33C92.0364 147.788 91.6607 150.227 91.0058 152.598C90.5221 154.195 89.8674 155.735 89.0531 157.192C88.5021 158.069 87.8679 158.892 87.1594 159.648C86.7507 160.009 86.3113 160.335 85.8462 160.62C85.4262 160.834 84.991 161.017 84.5442 161.168C84.1696 161.242 83.7901 161.288 83.4088 161.307C83.0364 161.278 82.6667 161.221 82.3031 161.135C81.7733 160.947 81.2595 160.716 80.7666 160.445C79.7365 159.764 78.7755 158.984 77.8976 158.116C77.2614 157.437 76.6601 156.731 76.0812 156.01C75.5836 155.387 75.0826 154.743 74.6471 154.077C74.0987 153.251 73.5552 152.424 73.0263 151.59C72.2818 150.463 71.6392 149.263 70.9764 148.084C71.0154 148.177 71.0788 148.259 71.1275 148.348C70.6617 147.396 70.189 146.428 69.7095 145.443C69.3687 144.743 69.071 144.035 68.7644 143.321C68.403 142.462 68.0104 141.612 67.6784 140.741C67.2606 139.658 66.8468 138.575 66.4369 137.492C65.7987 135.826 65.2211 134.14 64.624 132.463C64.0269 130.785 63.4768 129.151 62.9497 127.49C62.4976 126.061 61.9995 124.646 61.5954 123.209C61.1913 121.772 60.752 120.183 60.3268 118.668C59.4986 115.337 58.646 112.016 58.0007 108.642L58.0092 108.622ZM60.4525 119.103L60.5136 119.33L60.4525 119.103ZM102.289 114.121C102.105 113.234 101.905 112.348 101.75 111.477C101.543 110.302 101.335 109.126 101.132 107.949C100.852 106.344 100.588 104.734 100.377 103.1C100.229 101.945 100.08 100.785 99.937 99.6284C99.8192 98.7078 99.7759 97.7731 99.7054 96.8555C99.6413 96.1305 99.5862 95.4131 99.5672 94.6863C99.5414 93.7385 99.5204 92.7886 99.5161 91.8374L99.5626 90.2161C99.5817 89.6341 99.5861 89.0581 99.6246 88.4678C99.7492 87.0319 99.8502 85.5944 100.048 84.1679C100.143 83.439 100.243 82.7081 100.344 81.982C100.446 81.2559 100.652 80.4347 100.804 79.6644C101.026 78.5147 101.358 77.3934 101.669 76.2636L101.939 75.4726C102.35 76.0686 102.764 76.6694 103.164 77.2528C103.639 77.943 104.128 78.627 104.577 79.3393C105.322 80.5238 106.072 81.7062 106.818 82.8907C107.81 84.4708 108.743 86.099 109.656 87.7237L110.946 90.0914C111.329 90.797 111.727 91.4846 112.09 92.2102C112.928 93.8726 113.8 95.5088 114.588 97.2036C115.377 98.8983 116.244 100.686 117.011 102.453C117.777 104.22 118.613 106.124 119.369 107.987C120.03 109.557 120.635 111.145 121.23 112.749C121.825 114.353 122.413 116.023 122.972 117.677C123.53 119.33 124.024 120.954 124.528 122.601C124.943 123.942 125.264 125.317 125.609 126.682C125.557 126.56 125.54 126.424 125.506 126.289L126.17 129.626C126.621 132.044 126.827 134.502 126.785 136.962C126.743 138.813 126.489 140.654 126.028 142.447C125.803 143.156 125.516 143.843 125.171 144.502C124.943 144.834 124.693 145.151 124.421 145.449C124.208 145.637 123.982 145.811 123.745 145.969C123.559 146.047 123.374 146.125 123.189 146.203C122.912 146.25 122.633 146.283 122.352 146.302C121.911 146.264 121.472 146.193 121.041 146.091C120.134 145.774 119.258 145.374 118.425 144.896C117.052 144.013 115.775 142.988 114.617 141.837C112.588 139.647 110.82 137.227 109.349 134.629C108.577 133.231 107.899 131.743 107.195 130.288C106.932 129.745 106.723 129.167 106.511 128.596L105.719 126.633C105.459 126.014 105.291 125.343 105.079 124.704L104.44 122.762C104.226 122.118 104.069 121.443 103.886 120.791C103.723 120.228 103.568 119.668 103.406 119.105C103.02 117.453 102.63 115.803 102.293 114.143L102.289 114.121ZM132.646 105.871C132.458 104.865 132.273 103.852 132.083 102.842C131.95 102.117 131.875 101.379 131.773 100.647C131.672 99.9148 131.569 99.3034 131.497 98.6276C131.4 97.6182 131.305 96.6019 131.212 95.5904C131.069 94.0777 131.038 92.558 130.971 91.0361C130.989 89.7828 130.995 88.5288 131.112 87.2797L131.346 84.5348C131.393 83.9925 131.464 83.4517 131.571 82.9015C132.937 85.0703 134.242 87.2825 135.502 89.5131C135.696 89.8507 135.89 90.1882 136.081 90.5326C136.956 92.1334 137.842 93.735 138.685 95.355C139.638 97.2502 140.547 99.1236 141.45 101.023C143.013 104.393 144.396 107.845 145.591 111.364C146.05 112.686 146.432 114.029 146.825 115.374C146.952 115.894 147.061 116.371 147.183 116.865C147.305 117.359 147.423 117.831 147.508 118.318L147.925 120.755C148.155 122.17 148.271 123.602 148.269 125.036C148.228 126.473 148.034 127.901 147.692 129.297C147.542 129.774 147.353 130.237 147.127 130.683C147.012 130.846 146.895 131.005 146.757 131.166L146.484 131.379L146.25 131.477L146.064 131.498L145.829 131.459C145.618 131.378 145.412 131.285 145.212 131.179C144.724 130.835 144.262 130.453 143.831 130.039C142.518 128.559 141.359 126.951 140.369 125.239C139.785 124.193 139.206 123.157 138.666 122.092C138.298 121.369 137.947 120.672 137.569 119.924C137.191 119.176 136.884 118.405 136.544 117.652C135.916 116.269 135.368 114.858 134.813 113.444C134.587 112.908 134.436 112.345 134.261 111.793C134.016 111.047 133.767 110.279 133.535 109.55C133.223 108.332 132.898 107.109 132.668 105.868L132.646 105.871ZM136.216 90.7572C136.273 90.8937 136.358 91.0131 136.435 91.1414C136.377 91.0049 136.288 90.8876 136.216 90.7572ZM172.126 96.3812L172.21 96.5811C172.986 98.4245 173.717 100.281 174.437 102.142C175.052 103.726 175.536 105.354 176.02 106.981C176.219 107.781 176.41 108.574 176.572 109.384C176.735 110.194 176.857 110.877 176.947 111.637C176.45 111.005 175.993 110.342 175.578 109.653C174.518 107.622 173.697 105.475 173.131 103.255C172.582 101.001 172.243 98.7014 172.117 96.3853L172.126 96.3812Z" fill="#54BCAC" stroke="#142C3C" stroke-width="2" mask="url(#path-1-inside-1_459_1504)"/>
</svg>
